<svg width="24" height="24" viewBox="0 0 24 24" fill="none" xmlns="http://www.w3.org/2000/svg">
<path fill-rule="evenodd" clip-rule="evenodd" d="M16.72 7.71983C16.8606 7.57938 17.0512 7.50049 17.25 7.50049C17.4488 7.50049 17.6394 7.57938 17.78 7.71983L21.53 11.4698C21.6705 11.6105 21.7493 11.8011 21.7493 11.9998C21.7493 12.1986 21.6705 12.3892 21.53 12.5298L17.78 16.2798C17.7113 16.3535 17.6285 16.4126 17.5365 16.4536C17.4445 16.4946 17.3452 16.5166 17.2445 16.5184C17.1438 16.5202 17.0438 16.5017 16.9504 16.464C16.857 16.4262 16.7722 16.3701 16.701 16.2989C16.6297 16.2276 16.5736 16.1428 16.5359 16.0494C16.4982 15.956 16.4796 15.856 16.4814 15.7553C16.4832 15.6546 16.5052 15.5553 16.5462 15.4633C16.5872 15.3713 16.6463 15.2885 16.72 15.2198L19.19 12.7498H3C2.80109 12.7498 2.61032 12.6708 2.46967 12.5302C2.32902 12.3895 2.25 12.1987 2.25 11.9998C2.25 11.8009 2.32902 11.6102 2.46967 11.4695C2.61032 11.3288 2.80109 11.2498 3 11.2498H19.19L16.72 8.77983C16.5795 8.6392 16.5007 8.44858 16.5007 8.24983C16.5007 8.05108 16.5795 7.86045 16.72 7.71983Z" fill="#6F4E37"/>
</svg>
