<svg width="276" height="190" viewBox="0 0 276 190" fill="none" xmlns="http://www.w3.org/2000/svg">
<g opacity="0.5">
<path fill-rule="evenodd" clip-rule="evenodd" d="M183.118 171.436C205.566 175.522 228.764 178.056 249.098 189.148C250.311 189.804 251.828 189.365 252.494 188.153C253.15 186.941 252.71 185.424 251.499 184.758C230.689 173.408 206.983 170.694 184.013 166.515C182.656 166.262 181.349 167.17 181.105 168.528C180.852 169.885 181.761 171.182 183.118 171.436Z" fill="#A47149"/>
<path fill-rule="evenodd" clip-rule="evenodd" d="M186.236 138.403C194.276 133.045 202.703 129.408 212.347 128.465C213.724 128.332 214.726 127.108 214.598 125.735C214.46 124.361 213.231 123.355 211.863 123.49C201.377 124.514 192.209 128.419 183.469 134.242C182.316 135.006 182.001 136.559 182.772 137.709C183.533 138.856 185.094 139.169 186.236 138.403Z" fill="#A47149"/>
<path fill-rule="evenodd" clip-rule="evenodd" d="M177.789 64.7745C182.745 54.2414 190.445 46.6025 201.146 41.8943C202.408 41.3385 202.984 39.8621 202.423 38.5987C201.873 37.3369 200.394 36.7622 199.132 37.318C187.289 42.5319 178.753 50.9828 173.265 62.645C172.674 63.8923 173.219 65.3851 174.463 65.9714C175.717 66.5603 177.208 66.0234 177.789 64.7745Z" fill="#A47149"/>
<path fill-rule="evenodd" clip-rule="evenodd" d="M69.1575 32.3439C66.8864 34.2979 64.7855 36.4578 62.9167 38.8152C62.0836 39.8645 60.5528 42.1323 60.045 44.2036C59.4958 46.409 59.9597 48.4155 61.7595 49.7168C64.1504 51.443 66.2466 51.6319 67.9723 51.0863C69.6337 50.5629 71.0754 49.2479 72.1532 47.3502C74.2115 43.7229 74.9205 37.7961 74.6885 34.3138C77.0651 32.5252 79.6085 30.9642 82.2764 29.6405C102.149 19.7822 127.642 28.5772 144.846 50.6934C150.867 58.4364 152.075 72.8995 151.481 88.206C150.558 112.039 144.879 137.927 143.457 145.55C143.111 147.433 143.112 148.583 143.176 148.823C143.467 149.998 144.242 150.413 144.797 150.612C145.604 150.891 146.291 150.837 146.868 150.644C147.648 150.378 148.346 149.804 148.785 148.817C149.022 148.271 149.186 147.485 149.299 146.637C149.372 146.048 149.354 145.39 149.538 144.988C150.732 142.42 152.073 139.941 153.398 137.439C157.828 129.026 163.06 121.312 168.724 113.676C186.721 89.4126 204.498 63.5811 230.356 47.0049C231.516 46.261 231.861 44.7137 231.112 43.5514C230.373 42.3906 228.827 42.0523 227.657 42.7956C201.282 59.6985 183.064 85.9536 164.708 110.697C159.891 117.193 155.378 123.747 151.387 130.716C153.736 117.646 156.481 99.4753 156.606 83.0352C156.718 68.4142 154.643 55.1509 148.791 47.6238C129.945 23.3959 101.817 14.3608 80.055 25.1622C77.7271 26.3187 75.4748 27.639 73.339 29.1192C66.0029 9.0109 45.2378 -1.85089 24.465 3.94934C23.1313 4.31971 22.3575 5.7003 22.7256 7.02859C23.1037 8.35844 24.4796 9.13559 25.8133 8.76522C44.5321 3.53895 63.2205 13.7674 69.1575 32.3439ZM69.6162 38.762C68.6384 39.7663 67.7133 40.8215 66.8314 41.9239C66.3637 42.5164 65.5349 43.6667 65.0759 44.8477C64.9716 45.1249 64.8913 45.5718 64.8587 45.7793C65.4875 46.2223 65.9954 46.4682 66.4644 46.3182C67.05 46.1349 67.426 45.5462 67.8038 44.8818C68.7542 43.2152 69.3408 40.9002 69.6162 38.762Z" fill="#A47149"/>
</g>
</svg>
