<svg width="22" height="28" viewBox="0 0 22 28" fill="none" xmlns="http://www.w3.org/2000/svg">
<path fill-rule="evenodd" clip-rule="evenodd" d="M10.3867 27.3013L10.48 27.3547L10.5173 27.376C10.6654 27.4561 10.831 27.498 10.9993 27.498C11.1676 27.498 11.3333 27.4561 11.4813 27.376L11.5187 27.356L11.6133 27.3013C12.1348 26.9921 12.6437 26.6621 13.1387 26.312C14.4201 25.4073 15.6174 24.389 16.716 23.2693C19.308 20.616 22 16.6293 22 11.5C22 8.58262 20.8411 5.78473 18.7782 3.72183C16.7153 1.65893 13.9174 0.5 11 0.5C8.08262 0.5 5.28473 1.65893 3.22183 3.72183C1.15893 5.78473 0 8.58262 0 11.5C0 16.628 2.69333 20.616 5.284 23.2693C6.38219 24.3889 7.57903 25.4072 8.86 26.312C9.35543 26.6621 9.86473 26.9921 10.3867 27.3013ZM11 15.5C12.0609 15.5 13.0783 15.0786 13.8284 14.3284C14.5786 13.5783 15 12.5609 15 11.5C15 10.4391 14.5786 9.42172 13.8284 8.67157C13.0783 7.92143 12.0609 7.5 11 7.5C9.93913 7.5 8.92172 7.92143 8.17157 8.67157C7.42143 9.42172 7 10.4391 7 11.5C7 12.5609 7.42143 13.5783 8.17157 14.3284C8.92172 15.0786 9.93913 15.5 11 15.5Z" fill="#6F4E37"/>
</svg>
