<svg width="25" height="24" viewBox="0 0 25 24" fill="none" xmlns="http://www.w3.org/2000/svg">
<path d="M17.5539 13.8466C17.435 13.7798 17.3004 13.704 17.1381 13.6064C17.0475 13.5517 16.9337 13.4769 16.813 13.3977C16.1937 12.9912 15.7244 12.7035 15.325 12.7035C15.2314 12.7035 15.1429 12.7194 15.0622 12.7505C14.7123 12.8852 14.4249 13.2453 14.147 13.5934C14.0451 13.721 13.8993 13.9036 13.8109 13.9852C13.46 13.9214 12.7198 13.4629 11.9212 12.6643C11.1216 11.8647 10.663 11.1237 10.6001 10.7737C10.6816 10.6849 10.8656 10.538 10.994 10.4355C11.3408 10.1586 11.6994 9.8723 11.8349 9.52341C12.0078 9.07515 11.691 8.53904 11.1878 7.77244C11.1086 7.65179 11.0338 7.53784 10.9795 7.44798C10.8815 7.28509 10.8058 7.15032 10.7389 7.03154C10.4645 6.54394 10.2833 6.22168 9.60214 6.22168C9.16006 6.22168 8.53503 6.63943 8.11166 7.05371C7.49638 7.65591 7.15747 8.35116 7.15747 9.01276C7.15864 10.8097 8.16149 12.8692 9.90889 14.6652C9.91189 14.6682 9.91489 14.669 9.91799 14.672C11.714 16.4195 13.7747 17.4189 15.5715 17.4189H15.5722C16.2329 17.4189 16.9284 17.0839 17.5306 16.4689C17.9452 16.0456 18.3635 15.4251 18.3635 14.9833C18.3635 14.3023 18.0415 14.1211 17.5539 13.8466ZM15.5717 16.4905C14.0412 16.4894 12.1741 15.5619 10.5764 14.0092C9.02357 12.4113 8.096 10.5441 8.09502 9.0137C8.09502 8.08796 9.29633 7.20779 9.61049 7.15955C9.67466 7.15984 9.70831 7.16363 9.72435 7.16635C9.76588 7.21416 9.84842 7.36088 9.92192 7.49152C9.98844 7.60974 10.0713 7.75693 10.1767 7.9322C10.2405 8.0378 10.32 8.15888 10.4041 8.28704C10.5634 8.52966 10.8835 9.01735 10.9374 9.22552C10.8472 9.35326 10.5672 9.57676 10.4091 9.70295C10.0046 10.026 9.65516 10.3049 9.65516 10.699C9.65614 11.6512 10.8825 12.9515 11.2584 13.3273C11.6342 13.7032 12.9345 14.9296 13.8887 14.9305C14.2803 14.9292 14.558 14.5813 14.8797 14.1784C15.0065 14.0195 15.2314 13.7379 15.3597 13.6481C15.5676 13.7017 16.0559 14.0221 16.2987 14.1816C16.4269 14.2657 16.5479 14.3451 16.6542 14.4093C16.8288 14.5144 16.976 14.5972 17.0942 14.6637C17.2248 14.7372 17.3716 14.8198 17.4194 14.8614C17.4221 14.8773 17.4259 14.911 17.4262 14.9751C17.3776 15.289 16.4971 16.4894 15.5717 16.4905Z" fill="#FFFBF0"/>
<path d="M22.0805 12.0446C22.0476 9.51138 21.0307 7.11766 19.2174 5.3043C17.3706 3.45752 14.9329 2.44043 12.3532 2.44043C9.86296 2.44043 7.53336 3.39865 5.79346 5.13851C4.24949 6.68248 3.30224 8.74169 3.12603 10.9369C2.95892 13.0196 3.48913 15.1273 4.6213 16.8995L3.07527 21.0785C3.04904 21.1494 3.04035 21.2255 3.04992 21.3005C3.05949 21.3755 3.08704 21.447 3.13023 21.509C3.17343 21.5711 3.23097 21.6217 3.29797 21.6567C3.36497 21.6917 3.43943 21.7099 3.515 21.7099C3.57669 21.7099 3.63894 21.692 3.69796 21.667L7.72447 19.9535C9.2616 20.9102 11.0192 21.4033 12.824 21.4033H12.8242C15.314 21.4033 17.6435 20.4565 19.3832 18.7168C21.1555 16.9445 22.1134 14.5823 22.0805 12.0446ZM18.7202 18.0653C17.1575 19.628 15.0635 20.4886 12.824 20.4886C11.119 20.4885 9.46016 19.9895 8.02682 19.0453C7.96232 19.0028 7.88833 18.977 7.81141 18.97C7.7345 18.963 7.65705 18.9751 7.58596 19.0053L4.33114 20.3858L5.58271 17.0028C5.60851 16.933 5.61734 16.858 5.60846 16.7842C5.59957 16.7103 5.57323 16.6396 5.53161 16.5779C3.23117 13.1698 3.6201 8.63768 6.45636 5.80146C8.01917 4.23865 10.1134 3.37793 12.3532 3.37793C14.6825 3.37793 16.8848 4.29748 18.5545 5.96721C20.194 7.60671 21.1133 9.76934 21.143 12.0567C21.1727 14.3395 20.3122 16.4734 18.7202 18.0653Z" fill="#FFFBF0"/>
</svg>
