<svg width="32" height="33" viewBox="0 0 32 33" fill="none" xmlns="http://www.w3.org/2000/svg">
<path fill-rule="evenodd" clip-rule="evenodd" d="M16 3.5C8.82 3.5 3 9.32 3 16.5C3 23.68 8.82 29.5 16 29.5C23.18 29.5 29 23.68 29 16.5C29 9.32 23.18 3.5 16 3.5ZM17 8.5C17 8.23478 16.8946 7.98043 16.7071 7.79289C16.5196 7.60536 16.2652 7.5 16 7.5C15.7348 7.5 15.4804 7.60536 15.2929 7.79289C15.1054 7.98043 15 8.23478 15 8.5V16.5C15 17.052 15.448 17.5 16 17.5H22C22.2652 17.5 22.5196 17.3946 22.7071 17.2071C22.8946 17.0196 23 16.7652 23 16.5C23 16.2348 22.8946 15.9804 22.7071 15.7929C22.5196 15.6054 22.2652 15.5 22 15.5H17V8.5Z" fill="#6F4E37"/>
</svg>
