<svg width="325" height="323" viewBox="0 0 325 323" fill="none" xmlns="http://www.w3.org/2000/svg">
<path d="M211.648 232.264C250.065 203.17 257.684 147.121 228.665 107.075C199.646 67.029 144.979 58.1503 106.562 87.2439C68.1451 116.338 60.5262 172.386 89.5449 212.432C118.564 252.478 173.231 261.357 211.648 232.264Z" fill="#FFFBF0"/>
<path d="M209.669 229.532C246.638 201.534 253.97 147.597 226.045 109.06C198.119 70.522 145.511 61.9777 108.541 89.9753C71.5716 117.973 64.2398 171.91 92.1653 210.448C120.091 248.985 172.699 257.53 209.669 229.532Z" fill="#FFFBF0"/>
<path d="M137.535 99.7448L132.585 107.15C132.585 107.15 132.381 108.163 132.867 109.155C133.352 110.146 135.003 112.842 134.391 118.818C133.782 124.773 130.347 149.096 130.347 149.096C130.347 149.096 129.733 157.699 119.981 156.396C110.229 155.094 105.152 151.194 104.828 146.4C104.503 141.606 105.379 139.724 105.379 139.724C105.379 139.724 97.511 148.545 98.4167 154.279C99.3007 160.01 105.795 164.409 114.918 165.119C124.038 165.85 133.522 161.455 135.498 149.024C137.474 136.593 140.445 114.709 140.445 114.709C140.445 114.709 141.57 111.488 142.497 110.37C143.4 109.271 144.549 107.01 144.549 107.01C144.549 107.01 145.239 106.989 144.016 105.877C142.747 104.78 137.535 99.7448 137.535 99.7448Z" fill="#235C48"/>
<path d="M144.014 142.919C144.014 142.919 138.189 156.92 144.185 161.925C150.202 166.933 163.398 167.76 164.43 159.678C165.463 151.596 168.568 122.11 168.568 122.11L169.968 110.35C169.968 110.35 171.357 108.232 172.711 106.861C174.066 105.489 176.36 103.851 176.36 103.851L171.96 138.324L171.095 144.686C171.095 144.686 169.989 152.335 176.188 153.9C182.387 155.465 192.126 156.436 193.946 156.18C195.765 155.924 196.386 154.919 194.705 153.185C193.003 151.447 190.455 149.439 187.623 151.962L179.058 145.919C179.058 145.919 185.895 136.794 194.105 141.231C202.334 145.693 210.861 160.113 221.082 159.968L212.01 170.144C212.01 170.144 208.439 160.913 193.81 163.501C179.18 166.089 176.176 165.334 170.457 161.215C170.457 161.215 169.146 161.133 168.266 162.582C167.386 164.031 158.88 174.897 149.892 174.402C140.86 173.901 134.059 168.013 135.247 159.758C136.436 151.502 142 144.116 144.014 142.919Z" fill="#235C48"/>
<path d="M127.031 202.784L128.67 190.823C128.739 190.323 128.746 189.948 128.674 189.67C128.621 189.417 128.451 189.212 128.186 189.059C127.918 188.927 127.497 188.792 126.937 188.702C126.894 188.696 126.857 188.645 126.872 188.537C126.886 188.428 126.914 188.388 126.978 188.399C127.431 188.471 127.923 188.573 128.479 188.684C129.036 188.796 129.636 188.915 130.239 189.012C131.014 189.136 131.706 189.225 132.311 189.301C132.896 189.372 133.437 189.437 133.91 189.513C133.953 189.52 133.948 189.564 133.933 189.672C133.918 189.781 133.89 189.821 133.869 189.817C133.266 189.72 132.808 189.691 132.492 189.751C132.175 189.811 131.936 189.95 131.793 190.193C131.65 190.437 131.556 190.799 131.488 191.298L129.854 203.215C129.786 203.715 129.778 204.091 129.85 204.368C129.922 204.646 130.092 204.851 130.403 204.99C130.693 205.125 131.139 205.241 131.742 205.338C131.785 205.345 131.779 205.389 131.764 205.497C131.749 205.606 131.721 205.646 131.7 205.642C131.205 205.563 130.667 205.476 130.088 205.361C129.51 205.246 128.821 205.135 128.046 205.01C127.422 204.91 126.841 204.816 126.256 204.744C125.672 204.673 125.155 204.59 124.725 204.52C124.682 204.513 124.688 204.47 124.703 204.361C124.718 204.253 124.745 204.213 124.767 204.216C125.348 204.31 125.784 204.336 126.076 204.294C126.368 204.252 126.585 204.11 126.729 203.866C126.869 203.645 126.963 203.283 127.031 202.784ZM129.181 197.05L129.279 196.334L140.366 198.117L140.268 198.834L129.181 197.05ZM139.794 192.656C139.863 192.157 139.87 191.781 139.798 191.503C139.748 191.229 139.556 191.021 139.27 190.864C138.983 190.707 138.516 190.587 137.913 190.49C137.87 190.483 137.833 190.433 137.848 190.324C137.863 190.216 137.89 190.176 137.955 190.186C138.407 190.259 138.899 190.36 139.477 190.475C140.055 190.591 140.72 190.72 141.516 190.848C142.141 190.948 142.746 191.023 143.352 191.099C143.958 191.174 144.499 191.239 144.93 191.308C144.973 191.315 145.01 191.365 144.995 191.474C144.98 191.582 144.953 191.622 144.888 191.612C144.328 191.522 143.892 191.496 143.576 191.556C143.262 191.594 143.066 191.74 142.923 191.984C142.801 192.23 142.686 192.589 142.618 193.088L140.978 205.049C140.91 205.548 140.902 205.924 140.974 206.202C141.025 206.476 141.195 206.681 141.484 206.816C141.752 206.948 142.177 207.061 142.758 207.154C142.801 207.161 142.838 207.212 142.823 207.32C142.808 207.429 142.781 207.469 142.716 207.458C142.264 207.386 141.747 207.303 141.148 207.184C140.548 207.065 139.924 206.965 139.321 206.868C138.524 206.74 137.857 206.632 137.273 206.561C136.688 206.489 136.193 206.409 135.741 206.337C135.698 206.33 135.661 206.279 135.676 206.171C135.691 206.062 135.718 206.022 135.783 206.033C136.407 206.133 136.865 206.162 137.179 206.124C137.492 206.086 137.731 205.947 137.853 205.7C137.974 205.453 138.09 205.095 138.158 204.595L139.794 192.656Z" fill="#235C48"/>
<path d="M146.642 208.176C145.888 208.054 145.351 207.79 145.03 207.405C144.708 207.02 144.577 206.533 144.654 205.967C144.732 205.402 144.942 204.992 145.285 204.736C145.629 204.48 146.071 204.307 146.59 204.213C147.11 204.119 147.654 204.006 148.198 203.894L150.893 203.35L150.947 203.759L149.389 204.197C149.254 204.219 149.048 204.275 148.775 204.342C148.501 204.409 148.241 204.545 148.017 204.731C147.772 204.914 147.644 205.204 147.59 205.596C147.528 206.052 147.634 206.402 147.884 206.665C148.134 206.927 148.421 207.085 148.701 207.13C148.831 207.15 148.963 207.15 149.095 207.149C149.23 207.126 149.39 207.085 149.58 206.982L150.992 206.321L150.957 206.737L148.99 207.754C148.582 207.999 148.189 208.136 147.826 208.211C147.491 208.246 147.095 208.249 146.642 208.176ZM151.582 208.926C151.512 208.959 151.426 208.945 151.318 208.928C151.016 208.88 150.723 208.61 150.478 208.149C150.233 207.687 150.162 207.076 150.269 206.293L150.871 201.902C151.02 200.815 151.044 199.997 150.94 199.47C150.836 198.942 150.57 198.633 150.118 198.56C149.687 198.49 149.346 198.569 149.094 198.795C148.843 199.021 148.651 199.301 148.541 199.617C148.41 199.929 148.329 200.205 148.277 200.419C148.16 200.955 147.937 201.297 147.67 201.476C147.382 201.652 147.022 201.705 146.591 201.636C146.138 201.563 145.849 201.428 145.682 201.201C145.514 200.974 145.458 200.743 145.497 200.46C145.553 200.047 145.801 199.687 146.218 199.376C146.635 199.066 147.153 198.816 147.752 198.623C148.351 198.431 148.963 198.307 149.612 198.234C150.239 198.157 150.786 198.179 151.239 198.251C151.95 198.366 152.502 198.677 152.935 199.213C153.368 199.749 153.529 200.508 153.389 201.53L152.76 206.117C152.692 206.616 152.724 207.022 152.88 207.335C153.013 207.646 153.254 207.818 153.577 207.87C153.814 207.908 154.082 207.884 154.355 207.817C154.426 207.784 154.484 207.838 154.516 207.932C154.547 208.026 154.516 208.088 154.424 208.117L151.582 208.926Z" fill="#235C48"/>
<path d="M155.051 209.275C155.007 209.268 155.013 209.224 155.028 209.115C155.043 209.005 155.071 208.965 155.093 208.969C155.637 209.056 156.004 208.98 156.255 208.774C156.484 208.565 156.659 208.102 156.755 207.402L158.594 194.175C158.675 193.584 158.691 193.14 158.619 192.86C158.546 192.58 158.368 192.418 158.085 192.372C157.867 192.338 157.528 192.373 157.066 192.5C157.019 192.515 156.96 192.461 156.931 192.344C156.903 192.228 156.89 192.159 156.934 192.166L160.991 190.982C161.037 190.967 161.059 190.971 161.103 190.978C161.19 190.992 161.271 191.049 161.371 191.132C161.468 191.237 161.502 191.31 161.493 191.375L159.237 207.799C159.141 208.498 159.165 208.972 159.325 209.265C159.485 209.559 159.818 209.724 160.363 209.811C160.428 209.822 160.466 209.872 160.451 209.982C160.436 210.091 160.386 210.128 160.321 210.117C159.994 210.065 159.602 210.003 159.148 209.908C158.694 209.813 158.215 209.736 157.714 209.656C157.213 209.576 156.734 209.499 156.295 209.451C155.791 209.393 155.399 209.331 155.051 209.275Z" fill="#235C48"/>
<path d="M164.188 210.847C163.434 210.726 162.898 210.462 162.576 210.077C162.254 209.692 162.123 209.204 162.2 208.639C162.278 208.074 162.488 207.663 162.832 207.407C163.175 207.152 163.617 206.978 164.137 206.884C164.656 206.79 165.2 206.678 165.744 206.565L168.439 206.021L168.493 206.43L166.936 206.868C166.8 206.891 166.595 206.947 166.321 207.014C166.048 207.081 165.787 207.216 165.563 207.403C165.318 207.585 165.19 207.876 165.136 208.267C165.074 208.724 165.18 209.074 165.43 209.336C165.681 209.599 165.968 209.756 166.248 209.801C166.377 209.822 166.531 209.824 166.641 209.82C166.777 209.797 166.936 209.756 167.127 209.654L168.539 208.992L168.504 209.409L166.537 210.425C166.129 210.671 165.735 210.807 165.373 210.882C165.038 210.917 164.641 210.92 164.188 210.847ZM169.129 211.598C169.058 211.631 168.972 211.617 168.864 211.6C168.563 211.551 168.269 211.282 168.024 210.82C167.779 210.359 167.709 209.747 167.816 208.965L168.417 204.574C168.566 203.487 168.59 202.669 168.486 202.141C168.382 201.613 168.116 201.304 167.664 201.231C167.233 201.162 166.892 201.24 166.641 201.466C166.389 201.693 166.197 201.973 166.088 202.288C165.957 202.6 165.875 202.876 165.824 203.09C165.706 203.627 165.483 203.968 165.216 204.148C164.928 204.323 164.568 204.377 164.137 204.307C163.685 204.234 163.395 204.099 163.228 203.872C163.061 203.645 163.004 203.414 163.043 203.131C163.1 202.718 163.347 202.358 163.764 202.048C164.181 201.737 164.7 201.487 165.299 201.295C165.898 201.102 166.509 200.979 167.158 200.905C167.785 200.828 168.333 200.85 168.785 200.923C169.496 201.037 170.048 201.348 170.481 201.884C170.914 202.421 171.075 203.18 170.935 204.201L170.306 208.788C170.238 209.288 170.271 209.693 170.426 210.007C170.559 210.317 170.8 210.489 171.123 210.541C171.36 210.579 171.628 210.556 171.901 210.489C171.972 210.456 172.031 210.509 172.062 210.603C172.093 210.697 172.063 210.759 171.97 210.789L169.129 211.598Z" fill="#235C48"/>
<path d="M172.597 211.946C172.554 211.939 172.56 211.895 172.575 211.786C172.59 211.677 172.618 211.636 172.639 211.64C173.184 211.727 173.55 211.651 173.801 211.446C174.03 211.236 174.205 210.773 174.301 210.073L176.14 196.846C176.221 196.255 176.238 195.811 176.165 195.531C176.092 195.251 175.914 195.089 175.631 195.044C175.413 195.009 175.075 195.044 174.612 195.171C174.565 195.186 174.506 195.132 174.478 195.016C174.449 194.899 174.436 194.83 174.48 194.837L178.537 193.653C178.584 193.638 178.605 193.642 178.649 193.649C178.736 193.663 178.817 193.72 178.917 193.803C179.014 193.908 179.048 193.981 179.039 194.047L176.784 210.47C176.687 211.17 176.711 211.643 176.871 211.937C177.031 212.23 177.365 212.395 177.909 212.483C177.974 212.493 178.012 212.544 177.997 212.653C177.982 212.762 177.932 212.799 177.867 212.789C177.54 212.736 177.148 212.674 176.694 212.579C176.24 212.484 175.761 212.407 175.26 212.327C174.759 212.247 174.28 212.17 173.841 212.123C173.338 212.064 172.946 212.002 172.597 211.946Z" fill="#235C48"/>
<path fill-rule="evenodd" clip-rule="evenodd" d="M211.364 260.92C227.815 252.343 245.572 237.012 255.951 218.77C262.981 206.409 266.638 192.713 264.402 178.871C264.207 177.679 263.084 176.872 261.891 177.067C260.693 177.255 259.886 178.379 260.081 179.571C262.163 192.423 258.681 205.119 252.147 216.595C242.178 234.111 225.134 248.812 209.341 257.029C208.272 257.595 207.853 258.916 208.407 259.986C208.973 261.055 210.295 261.474 211.364 260.92Z" fill="#FFFBF0"/>
<path fill-rule="evenodd" clip-rule="evenodd" d="M53.4386 154.053C44.7629 184.889 58.7104 213.264 82.7925 232.192C83.7429 232.929 83.9145 234.312 83.1651 235.266C82.4197 236.212 81.0413 236.376 80.0948 235.631C54.5989 215.603 40.0474 185.499 49.231 152.869C49.559 151.701 50.7647 151.027 51.925 151.351C53.0932 151.679 53.7666 152.885 53.4386 154.053Z" fill="#FFFBF0"/>
</svg>
