<svg width="150" height="150" viewBox="0 0 150 150" fill="none" xmlns="http://www.w3.org/2000/svg">
<path d="M74.52 22.11C93.06 21.27 107.37 34.65 111.87 49.89C112.08 50.64 112.95 51.36 113.67 51.75C120.63 55.17 125.01 63.06 124.32 71.1C123.66 78.78 118.17 85.65 110.82 87.72C105 89.37 99.39 88.41 94.38 85.26C91.02 83.16 88.35 83.01 84.87 85.26C77.55 90.03 69.99 89.22 62.88 84.51C60.33 82.83 58.23 82.71 55.71 84.42C51.51 87.24 46.95 88.83 41.73 88.44C33.54 87.84 26.28 81.72 24.84 73.65C23.37 65.34 25.83 58.44 32.67 53.28C32.76 53.22 32.85 53.1 32.94 53.07C36.12 52.02 37.02 49.38 38.19 46.56C43.98 32.79 54.12 24.3 69.12 22.11C70.86 21.9 72.72 22.11 74.52 22.11ZM74.67 34.68C72.18 34.65 70.41 36.33 70.35 38.73C70.29 41.22 72.21 43.14 74.76 43.14C77.19 43.14 78.84 41.43 78.84 38.88C78.84 36.42 77.13 34.68 74.67 34.68ZM94.23 57.84C94.26 55.44 92.49 53.46 90.3 53.37C88.02 53.28 85.83 55.47 85.8 57.81C85.77 59.94 87.75 61.89 89.97 61.92C92.37 61.95 94.2 60.18 94.23 57.84ZM54.87 57.81C54.87 60.06 56.7 61.83 59.01 61.83C61.35 61.83 63.09 60.03 63.06 57.72C63.03 55.26 61.29 53.49 58.92 53.49C56.61 53.49 54.87 55.35 54.87 57.81Z" fill="#6F4E37"/>
<path d="M39.66 95.4C42.39 95.16 45 95.22 47.46 94.62C50.64 93.81 53.76 92.61 56.73 91.26C58.2 90.6 59.28 90.48 60.63 91.26C65.01 93.84 69.81 94.8 74.85 94.74C79.32 94.68 83.49 93.57 87.36 91.35C88.71 90.57 89.85 90.42 91.26 91.23C96 93.96 101.19 95.1 106.65 95.07C107.61 95.07 108.57 95.19 109.65 95.28C108.39 102.15 107.16 108.72 105.93 115.26C105.54 117.36 105.18 119.49 104.7 121.59C103.68 126.09 100.17 129.9 94.47 129.84C81.21 129.69 67.95 129.75 54.69 129.84C48.09 129.87 44.7 126.21 43.71 120.21C42.48 112.8 41.19 105.42 39.93 98.01C39.78 97.2 39.75 96.39 39.66 95.4Z" fill="#6F4E37"/>
</svg>
