<svg width="150" height="150" viewBox="0 0 150 150" fill="none" xmlns="http://www.w3.org/2000/svg">
<path d="M76.65 94.71C95.82 94.71 114.99 94.71 134.19 94.71C134.88 94.71 135.6 94.74 136.29 94.68C138.51 94.41 139.32 96.27 139.05 98.04C138.69 100.5 137.16 102.36 135.54 104.1C130.8 109.14 124.95 112.44 118.56 114.87C114.15 116.55 109.56 117.6 104.85 117.87C101.64 118.05 98.4 118.2 95.19 118.2C81.63 118.23 68.04 118.29 54.48 118.17C44.4 118.08 34.86 115.74 26.1 110.61C22.05 108.24 18.24 105.48 15.63 101.4C14.82 100.11 14.19 98.73 14.22 97.14C14.25 95.46 15.15 94.65 16.83 94.65C27.93 94.65 39.03 94.68 50.13 94.68C58.98 94.71 67.8 94.71 76.65 94.71Z" fill="#6F4E37"/>
<path d="M118.29 90.54C114.54 90.36 110.79 90.27 107.04 90C104.28 89.79 101.52 89.34 98.76 89.01C95.79 88.68 92.82 88.41 89.85 88.08C87.21 87.78 84.57 87.48 81.93 87.15C79.05 86.82 76.17 86.46 73.29 86.13C72.09 85.98 70.89 85.92 69.72 85.74C66.81 85.26 65.37 82.38 66.66 79.65C67.02 78.9 67.5 78.18 68.07 77.55C72.96 72.03 77.85 66.54 82.74 61.02C87.45 55.74 92.16 50.46 96.9 45.21C98.52 43.41 100.14 41.58 101.85 39.84C104.31 37.35 108.3 38.07 109.71 41.31C111.18 44.64 112.5 48.06 113.85 51.45C117.81 61.65 121.77 71.85 125.7 82.05C126.42 83.94 127.11 85.83 127.74 87.72C128.25 89.28 127.41 90.36 125.79 90.36C123.3 90.36 120.81 90.36 118.29 90.36C118.29 90.45 118.29 90.51 118.29 90.54ZM91.92 72.18C91.92 70.71 90.69 69.48 89.16 69.42C87.69 69.36 86.31 70.62 86.28 72.06C86.25 73.53 87.6 74.88 89.07 74.88C90.63 74.85 91.89 73.65 91.92 72.18ZM108.78 77.7C110.31 77.7 111.48 76.65 111.48 75.21C111.51 73.56 110.4 72.42 108.78 72.42C107.16 72.42 105.99 73.53 105.99 75.06C106.02 76.62 107.13 77.7 108.78 77.7ZM105.69 58.47C105.72 56.94 104.55 55.74 103.02 55.71C101.52 55.71 100.2 56.94 100.2 58.38C100.2 59.82 101.46 61.08 102.96 61.11C104.37 61.14 105.66 59.91 105.69 58.47Z" fill="#6F4E37"/>
<path d="M69.21 69.9C67.38 72.36 65.52 74.64 63.9 77.1C62.16 79.74 62.25 82.56 63.72 85.44C63.27 85.68 62.82 85.95 62.34 86.13C59.07 87.39 55.83 88.68 52.53 89.85C51.63 90.18 50.58 90.36 49.62 90.36C41.46 90.39 33.3 90.39 25.14 90.39C23.49 90.39 23.19 90 23.49 88.38C24.87 81.03 26.22 73.68 27.6 66.36C28.71 60.42 29.76 54.48 30.99 48.57C31.92 44.19 36.33 43.2 39.18 45.48C43.8 49.14 48.36 52.89 52.92 56.61C58.32 61.02 63.72 65.43 69.12 69.84C69.21 69.9 69.27 69.96 69.21 69.9ZM38.19 77.88C36.69 77.85 35.34 79.08 35.34 80.52C35.31 82.05 36.63 83.31 38.22 83.31C39.69 83.31 40.98 82.05 40.98 80.58C40.98 79.17 39.69 77.91 38.19 77.88ZM43.62 63.06C43.59 61.59 42.24 60.39 40.71 60.42C39.27 60.45 38.01 61.71 38.01 63.12C38.04 64.5 39.39 65.85 40.8 65.85C42.24 65.88 43.65 64.5 43.62 63.06ZM55.68 78.24C57.33 78.24 58.5 77.1 58.5 75.54C58.5 74.1 57.33 72.96 55.83 72.96C54.15 72.96 52.95 74.04 52.95 75.57C52.95 77.13 54.09 78.24 55.68 78.24Z" fill="#6F4E37"/>
<path d="M72.21 67.11C65.37 61.74 58.56 56.37 51.75 51C53.49 47.64 55.2 44.34 56.94 41.01C59.94 35.22 62.94 29.46 65.94 23.67C67.83 20.04 72.75 19.74 75.06 23.16C78.75 28.59 82.35 34.05 85.98 39.51C87.69 42.06 89.37 44.61 91.11 47.22C84.81 53.82 78.57 60.42 72.21 67.11ZM83.64 50.07C83.64 48.57 82.44 47.43 80.85 47.43C79.29 47.4 78 48.66 78 50.16C78 51.57 79.35 52.86 80.82 52.83C82.38 52.83 83.64 51.57 83.64 50.07ZM65.85 57.48C67.32 57.48 68.55 56.28 68.61 54.75C68.64 53.43 67.26 52.02 65.91 52.05C64.38 52.08 63 53.37 63.03 54.78C63.06 56.22 64.38 57.45 65.85 57.48ZM69 38.7C69 40.14 70.26 41.37 71.7 41.4C73.29 41.43 74.52 40.23 74.52 38.67C74.52 37.23 73.29 36.12 71.73 36.12C70.2 36.12 69 37.26 69 38.7Z" fill="#6F4E37"/>
</svg>
