<svg width="150" height="150" viewBox="0 0 150 150" fill="none" xmlns="http://www.w3.org/2000/svg">
<path d="M59.6698 51C60.5098 57.39 63.5998 62.16 69.1498 65.07C73.5898 67.41 78.3598 67.77 83.1898 66.39C90.8998 64.2 97.6198 55.17 94.6798 43.02C96.6598 44.01 98.4298 44.76 100.05 45.78C108.18 50.85 114.93 57.42 120.54 65.22C121.83 66.99 122.31 68.94 122.34 71.16C122.4 87.48 122.52 103.8 122.61 120.12C122.64 123.84 121.11 125.4 117.42 125.52C103.59 126.03 89.7898 126.54 75.9598 127.02C61.4098 127.53 46.8598 128.01 32.3098 128.52C28.5598 128.64 27.0898 127.35 27.0598 123.54C26.9398 107.1 26.8798 90.66 26.7298 74.22C26.6998 71.4 27.8098 69.51 30.2998 68.07C39.5098 62.79 48.6298 57.39 57.7798 52.02C58.3198 51.69 58.8898 51.39 59.6698 51ZM114.9 99.45C88.0198 100.56 61.2898 101.67 34.6798 102.78C34.6798 108.99 34.6798 114.93 34.6798 120.99C61.5598 119.97 88.1998 118.95 114.9 117.93C114.9 111.75 114.9 105.66 114.9 99.45ZM34.3198 87.9C61.1998 86.73 87.8098 85.56 114.33 84.39C114.33 80.67 114.33 77.22 114.33 73.74C87.5398 74.76 60.9598 75.78 34.3198 76.83C34.3198 80.61 34.3198 84.09 34.3198 87.9Z" fill="#6F4E37"/>
<path d="M78.0299 61.71C72.3898 61.59 68.3698 59.07 66.0598 54.18C63.7198 49.29 63.9598 44.37 67.4698 40.11C68.7298 38.58 70.7399 37.5 72.6299 36.69C73.9499 36.12 74.6098 35.67 74.8198 34.17C75.7498 27.9 80.2499 23.04 86.3099 21.66C87.2699 21.45 88.4998 21.33 89.2799 21.78C90.2099 22.32 91.2598 23.46 91.3198 24.39C91.3798 25.32 90.4798 26.55 89.6698 27.24C88.8598 27.96 87.5998 28.14 86.5798 28.62C83.9099 29.88 82.3798 32.13 81.4198 34.86C81.0898 35.76 81.2698 36.33 82.2898 36.63C87.2398 38.04 90.9598 43.26 90.3898 49.65C89.8798 55.38 85.7098 60.24 80.0398 61.47C79.3198 61.65 78.5998 61.65 78.0299 61.71Z" fill="#6F4E37"/>
</svg>
