<svg width="150" height="150" viewBox="0 0 150 150" fill="none" xmlns="http://www.w3.org/2000/svg">
<path d="M111.27 63.63C114.39 64.02 117.42 64.11 120.33 64.77C129.21 66.87 136.29 75.69 135.84 85.95C135.45 94.68 128.73 103.14 119.52 104.91C114.63 105.84 109.47 105.66 104.4 105.78C102.9 105.81 101.97 106.23 101.1 107.37C94.9201 115.44 86.85 120.78 76.35 122.4C56.46 125.46 40.29 118.44 30.87 100.8C26.25 92.13 24.12 82.83 23.61 73.17C23.43 69.81 23.31 66.48 23.28 63.12C23.25 59.04 24.99 57.48 29.34 57.48C54.66 57.48 79.98 57.48 105.33 57.48C109.68 57.48 111.03 58.74 111.21 63C111.21 63.3 111.27 63.54 111.27 63.63ZM106.35 96.36C110.25 96.15 113.79 96.36 117.15 95.7C123.45 94.41 126.9 88.02 125.19 81.66C123.6 75.84 117.45 72.39 111.33 73.92C110.94 81.42 109.77 88.77 106.35 96.36Z" fill="#6F4E37"/>
<path d="M66.12 128.04C78.48 128.04 90.81 128.04 103.17 128.04C106.59 128.04 109.02 130.17 108.96 133.14C108.9 136.05 106.56 138.12 103.23 138.12C78.48 138.12 53.7 138.12 28.95 138.12C25.53 138.12 23.22 136.11 23.19 133.23C23.16 130.17 25.59 128.04 29.1 128.04C41.43 128.04 53.79 128.04 66.12 128.04Z" fill="#6F4E37"/>
<path d="M65.34 16.02C64.86 17.04 64.59 18.21 63.9 19.05C60.48 23.13 60.81 27.12 63.51 31.47C66.81 36.78 66.3 42.84 62.58 47.04C61.17 48.66 59.34 49.44 57.15 49.02C55.47 48.69 54.09 47.67 53.97 45.96C53.88 44.76 54.03 43.35 54.63 42.36C56.46 39.39 56.07 36.69 54.39 33.84C50.52 27.33 50.94 20.91 55.38 14.79C56.55 13.17 58.08 11.85 60.3 11.64C63.24 11.34 65.16 13.08 65.34 16.02Z" fill="#6F4E37"/>
<path d="M77.76 38.73C77.13 37.23 76.71 35.82 75.99 34.56C74.07 31.26 72.33 27.93 72.72 23.97C73.14 19.53 75.0299 15.75 78.5399 12.78C80.3399 11.25 83.25 11.16 84.75 12.45C86.49 13.92 86.7899 16.38 85.4399 18.51C84.8699 19.41 84.21 20.31 83.55 21.18C81.48 23.94 81.72 26.67 83.28 29.64C84.63 32.16 85.92 34.86 86.4 37.59C87.09 41.52 85.65 45.15 82.5 47.94C79.86 50.28 75.72 49.17 75.03 45.9C74.82 44.88 75.45 43.65 75.87 42.57C76.41 41.28 77.1 40.08 77.76 38.73Z" fill="#6F4E37"/>
</svg>
